# xmcd
#
# Track frame offsets: 
#        150
#        13087
#        30483
#        50198
#        63955
#        82597
#        95361
#        109380
#        127365
#        139665
#        151370
#        162711
#
# Disc length: 2173 seconds
#
# Revision: 0
# Processed by: cddbd v1.5.2PL0 Copyright (c) Steve Scherf et al.
# Submitted via: ExactAudioCopyFreeDBPlugin 1.0
#
DISCID=a2087b0c
DTITLE=23 String Band - Catch 23
DYEAR=2011
DGENRE=Bluegrass
TTITLE0=Fat Frankie
TTITLE1=Long Hot Summer Days
TTITLE2=Catch 23
TTITLE3=Leave Everything to Me
TTITLE4=Listen to Her Heart
TTITLE5=Bees' Knees
TTITLE6=One for Me
TTITLE7=Hey Pretty Mama
TTITLE8=Deer Tick
TTITLE9=Raleigh and Spencer
TTITLE10=Cripple Creek
TTITLE11=bonus track
EXTD=
EXTT0=
EXTT1=
EXTT2=
EXTT3=
EXTT4=
EXTT5=
EXTT6=
EXTT7=
EXTT8=
EXTT9=
EXTT10=
EXTT11=
PLAYORDER=
